<svg xmlns="http://www.w3.org/2000/svg" viewBox="0 0 512 512" width="512" height="512">
  <defs>
    <linearGradient id="g" x1="0" y1="0" x2="1" y2="1">
      <stop offset="0" stop-color="#8a1f63"/>
      <stop offset="0.55" stop-color="#801d5c"/>
      <stop offset="1" stop-color="#c02e80"/>
    </linearGradient>
    <radialGradient id="h" cx="0.3" cy="0.24" r="0.95">
      <stop offset="0" stop-color="#ffffff" stop-opacity="0.18"/>
      <stop offset="0.55" stop-color="#ffffff" stop-opacity="0"/>
    </radialGradient>
  </defs>
  <rect x="0" y="0" width="512" height="512" rx="112" ry="112" fill="url(#g)"/>
  <rect x="0" y="0" width="512" height="512" rx="112" ry="112" fill="url(#h)"/>
  
  <!-- open progress ring -->
  <path d="M 170 378.9 A 150 150 0 1 1 342 378.9"
        fill="none" stroke="#ffffff" stroke-width="36" stroke-linecap="round"/>
  <!-- sprout: stem + two leaves -->
  <g transform="translate(112 88) scale(12)">
    <path d="M12 22 V11" fill="none" stroke="#ffffff" stroke-width="2.4" stroke-linecap="round"/>
    <path d="M12 11c0-3-2.5-5-6-5 0 3.5 2.5 5.5 6 5z" fill="#ffffff"/>
    <path d="M12 13c0-2.5 2.2-4.5 6-4.5 0 3-2.5 4.5-6 4.5z" fill="#ffffff"/>
  </g>

</svg>